<svg id="Capa_1" enable-background="new 0 0 512 512" height="512" viewBox="0 0 512 512" width="512" xmlns="http://www.w3.org/2000/svg"><g><g><g clip-rule="evenodd" fill-rule="evenodd"><path d="m143.5 138.75c0 46.131 27.769 85.769 67.5 103.13v24.369h90v-24.369c39.731-17.361 67.5-56.999 67.5-103.13 0-62.132-50.368-112.5-112.5-112.5s-112.5 50.368-112.5 112.5z" fill="#faef93"/><path d="m226 326.249h60c8.25 0 15-6.75 15-15v-44.999h-90v44.999c0 8.25 6.75 15 15 15z" fill="#e5ecf5"/><path d="m233.5 356.248h45l7.5-29.999h-60z" fill="#e5ecf5"/><path d="m22.5 455.75h158.5l75-37.499c70.129-39.446 124.448-37.5 233.5-37.5v75h-158.5l-75-37.499c-70.129-39.446-124.448-37.5-233.5-37.5z" fill="#e5ecf5"/><path d="m7.5 485.75h188.501l59.999-29.999 59.999 29.999h188.501v-30h-15-158.5l-75-37.499-75 37.499h-173.5z" fill="#e08ea2"/><path d="m7.5 485.75h188.501l59.999-29.999 59.999 29.999h188.501v-15h-184.96l-63.54-31.77-63.54 31.77h-184.96z" fill="#c21d44"/><path d="m143.5 138.75c0 46.131 27.769 85.769 67.5 103.13v24.369h22.5v-31.869c-88.797-38.801-89.767-165.297-1.67-205.518-50.515 11.06-88.33 56.054-88.33 109.888z" fill="#f8e868"/><path d="m226 326.249h22.5c-8.25 0-15-6.75-15-15v-44.999h-22.5v30 15c0 8.249 6.75 14.999 15 14.999z" fill="#b0c5e0"/><path d="m233.5 356.248h22.499l-7.5-29.999h-22.499z" fill="#b0c5e0"/><path d="m22.5 455.75h22.5v-75s-13.554 0-22.5 0z" fill="#b0c5e0"/></g><g><path d="m467.001 418.25h-15.001v-15h15.001zm-30.001 0h-15v-15h15zm-115.223-311.656c-11.685-22.462-32.926-35.344-58.277-35.344v-15c31.137 0 57.228 15.827 71.584 43.422zm-73.277-35.344h-15v-15h15z" fill="#fff"/></g></g><g><path d="m497 448.25v-75s-17.353-.004-22.113-.008c-19.038-.017-37.021-.031-53.346.235l.244 14.998c16.196-.264 34.117-.248 53.089-.234 2.35.002 4.724.004 7.126.005v60.003h-149.229l-18.516-9.258 28.604-7.986-4.033-14.447-44.558 12.442-21.909-10.955c44.195-22.179 83.617-27.686 134.536-29.228l-.453-14.993c-56.699 1.717-99.831 8.217-150.435 35.858-66.924-36.564-121.383-36.53-218.834-36.439-4.78.004-22.173.007-22.173.007v75h-15v45h197.771l58.229-29.114 58.229 29.114h197.771v-45zm-467-60.002c2.422-.001 4.817-.003 7.185-.005 93.276-.074 143.151-.115 202.477 29.792l-21.93 10.965-44.558-12.44-4.033 14.447 28.604 7.986-18.516 9.258h-149.229zm467 90.002h-179.23l-61.77-30.885-61.77 30.885h-179.23v-15h167.771l73.229-36.614 73.229 36.614h167.771z"/><path d="m403.565 172.707h15v44.964h-15z" transform="matrix(.342 -.94 .94 .342 87.052 514.702)"/><path d="m388.584 74.81h44.964v15h-44.964z" transform="matrix(.94 -.342 .342 .94 -3.358 145.577)"/><path d="m398.5 131.25h44.999v15h-44.999z"/><path d="m68.501 131.25h44.999v15h-44.999z"/><path d="m93.435 59.829h14.999v44.962h-14.999z" transform="matrix(.342 -.94 .94 .342 -10.934 149.005)"/><path d="m78.453 187.689h44.962v14.999h-44.962z" transform="matrix(.94 -.342 .342 .94 -60.674 46.296)"/><path d="m203.5 246.677v64.572c0 10.305 6.966 19.008 16.435 21.663l7.709 30.837h56.712l7.71-30.837c9.468-2.655 16.435-11.358 16.435-21.663v-64.572c41.165-20.038 67.5-61.871 67.5-107.927 0-66.168-53.832-120-120-120-33.447 0-65.632 14.125-88.303 38.752l11.036 10.159c19.837-21.551 48-33.911 77.266-33.911 57.897 0 105 47.103 105 105 0 41.75-24.73 79.534-63.003 96.257l-4.497 1.965v21.777h-15v-98.707l19.024 5.098 3.883-14.488-86.933-23.293-3.882 14.488 22.907 6.138v110.765h-15v-21.777l-4.497-1.965c-38.272-16.724-63.002-54.508-63.002-96.258 0-21.682 6.555-42.493 18.957-60.185l-12.282-8.61c-14.18 20.228-21.675 44.017-21.675 68.795 0 46.056 26.335 87.888 67.5 107.927zm35.855 102.071-3.75-15h40.789l-3.75 15zm46.645-29.999h-60c-4.136 0-7.5-3.364-7.5-7.5v-7.5h75v7.5c0 4.135-3.364 7.5-7.5 7.5zm-37.5-166.744 15 4.019v102.726h-15zm45 121.745v15h-75v-15z"/></g></g></svg>